<svg t="1699010999017" class="icon" viewBox="0 0 1024 1024" version="1.1" xmlns="http://www.w3.org/2000/svg" p-id="1220" width="30" height="30"><path d="M967.111111 281.6V910.222222c0 62.862222-50.915556 113.777778-113.777778 113.777778H170.666667c-62.862222 0-113.777778-50.915556-113.777778-113.777778V113.777778c0-62.862222 50.915556-113.777778 113.777778-113.777778h514.844444L967.111111 281.6z" fill="#BABABA" p-id="1221"></path><path d="M685.511111 167.822222V0L967.111111 281.6H799.288889c-62.862222 0-113.777778-50.915556-113.777778-113.777778" fill="#979797" p-id="1222"></path><path d="M782.222222 740.750222h-540.444444c5.376-48.924444 22.442667-95.800889 49.777778-136.704a252.216889 252.216889 0 0 1 82.403555-79.473778l9.244445-5.176888-44.942223-75.150223c-3.299556-5.404444-3.84-13.368889 3.356445-18.631111 7.196444-5.262222 17.976889 1.223111 19.484444 3.84l46.819556 78.791111c34.645333-13.824 67.697778-19.285333 104.96-18.801777 36.693333-0.455111 69.176889 3.555556 103.111111 17.379555l46.620444-78.791111c1.536-2.645333 11.491556-7.850667 18.318223-3.783111 6.826667 4.096 8.248889 13.226667 4.920888 18.574222l-45.511111 76.999111 11.264 6.314667a256.284444 256.284444 0 0 1 81.749334 81.521778 326.058667 326.058667 0 0 1 48.867555 133.091555z m-168.903111-100.892444a22.528 22.528 0 1 0 45.056 0 22.528 22.528 0 0 0-45.056 0z m-247.694222 0a22.528 22.528 0 1 0 45.056 0 22.528 22.528 0 0 0-45.056 0z" fill="#FFFFFF" p-id="1223"></path></svg>