<svg t="1697466418471" class="icon" viewBox="0 0 1024 1024" version="1.1" xmlns="http://www.w3.org/2000/svg" p-id="3438" width="30" height="30"><path d="M967.111111 281.6V910.222222c0 62.577778-51.2 113.777778-113.777778 113.777778H170.666667c-62.577778 0-113.777778-51.2-113.777778-113.777778V113.777778c0-62.577778 51.2-113.777778 113.777778-113.777778h514.844444L967.111111 281.6z" fill="#4997D9" p-id="3439"></path><path d="M685.511111 224.711111V0L967.111111 281.6H742.4c-31.288889 0-56.888889-25.6-56.888889-56.888889" fill="#1973BE" p-id="3440"></path><path d="M260.920889 499.655111c8.931556 0 16.810667-0.910222 23.608889-2.730667s12.060444-3.84 15.786666-6.115555L292.977778 469.617778l-4.920889 2.218666a42.808889 42.808889 0 0 1-6.257778 2.104889 71.196444 71.196444 0 0 1-18.488889 2.275556c-6.144 0-11.377778-0.967111-15.644444-2.958222a27.704889 27.704889 0 0 1-10.467556-8.049778 32.227556 32.227556 0 0 1-5.774222-12.145778 61.809778 61.809778 0 0 1-1.763556-15.189333c0-6.798222 0.881778-12.572444 2.702223-17.351111 1.820444-4.721778 4.209778-8.618667 7.224889-11.605334a27.079111 27.079111 0 0 1 10.353777-6.542222c3.896889-1.365333 7.907556-2.019556 11.946667-2.019555a60.359111 60.359111 0 0 1 29.070222 6.940444l7.623111-21.390222a52.792889 52.792889 0 0 0-12.060444-5.347556 88.064 88.064 0 0 0-10.695111-2.56 76.743111 76.743111 0 0 0-13.568-1.080889c-8.618667 0-16.583111 1.365333-23.950222 4.067556a52.536889 52.536889 0 0 0-19.029334 11.946667 56.149333 56.149333 0 0 0-12.544 19.370666 69.717333 69.717333 0 0 0-4.579555 26.083556c0 19.569778 5.006222 34.702222 15.018666 45.340444 10.012444 10.638222 24.576 15.928889 43.719111 15.928889z m75.946667-2.389333c1.223111-4.067556 2.616889-8.248889 4.124444-12.572445 1.536-4.266667 3.043556-8.590222 4.522667-12.885333h45.824l4.522666 12.885333c1.507556 4.323556 2.901333 8.504889 4.152889 12.572445h28.359111a2094.193778 2094.193778 0 0 0-12.572444-35.157334c-3.982222-10.752-7.850667-20.878222-11.633778-30.378666a901.973333 901.973333 0 0 0-22.670222-52.138667h-25.315556c-3.953778 8.163556-7.765333 16.497778-11.434666 25.031111a1087.004444 1087.004444 0 0 0-22.840889 57.486222c-3.982222 10.752-8.163556 22.471111-12.572445 35.157334h27.505778z m48.184888-46.535111h-33.450666c1.820444-5.091556 3.612444-9.955556 5.376-14.592a3646.151111 3646.151111 0 0 1 8.732444-22.926223c1.137778-2.929778 1.991111-5.262222 2.56-6.968888l2.702222 6.968888 3.982223 10.183112c1.536 3.868444 3.128889 8.106667 4.835555 12.743111 1.706667 4.636444 3.470222 9.500444 5.262222 14.592z m97.962667 48.071111c10.439111 0 19.825778-1.251556 28.188445-3.754667 8.391111-2.474667 15.502222-6.200889 21.333333-11.207111 5.802667-4.977778 10.325333-11.235556 13.482667-18.830222 3.185778-7.594667 4.750222-16.497778 4.750222-26.652445 0-10.638222-1.564444-19.768889-4.750222-27.335111a47.530667 47.530667 0 0 0-13.568-18.688 56.092444 56.092444 0 0 0-21.162667-10.695111c-8.192-2.275556-17.351111-3.413333-27.420445-3.413333-4.750222 0-10.439111 0.199111-17.066666 0.597333-6.599111 0.398222-12.970667 1.166222-19.086222 2.304v114.631111c6.115556 1.223111 12.344889 2.048 18.659555 2.446222 6.343111 0.398222 11.889778 0.568889 16.64 0.568889z m1.365333-22.755556a173.283556 173.283556 0 0 1-10.183111-0.341333v-74.382222c1.706667-0.227556 3.498667-0.369778 5.432889-0.426667l5.603556-0.085333c13.255111 0 22.926222 3.185778 29.013333 9.528889 6.144 6.343111 9.187556 15.644444 9.187556 28.017777 0 11.776-3.185778 20.992-9.585778 27.676445-6.4 6.656-16.213333 10.012444-29.468445 10.012444z" fill="#FFFFFF" p-id="3441"></path><path d="M191.687111 705.422222h426.666667v-31.288889h-426.666667zM696.689778 705.422222H853.333333v-31.288889h-156.643555zM641.991111 650.723556h31.288889V337.408h-31.288889zM641.991111 885.674667h31.288889V729.031111h-31.288889z" fill="#FFFFFF" p-id="3442"></path><path d="M618.382222 729.031111h78.307556v-78.307555H618.382222v78.307555z m91.363556-104.419555H605.297778a12.942222 12.942222 0 0 0-13.056 13.056v104.419555c0 7.338667 5.745778 13.056 13.056 13.056h104.448a12.942222 12.942222 0 0 0 13.056-13.056v-104.419555a12.942222 12.942222 0 0 0-13.056-13.056z" fill="#FFFFFF" p-id="3443"></path></svg>