<svg t="1697430071175" class="icon" viewBox="0 0 1024 1024" version="1.1" xmlns="http://www.w3.org/2000/svg" p-id="2736" width="30" height="30"><path d="M663.552 0H223.20097A159.868121 159.868121 0 0 0 63.301818 159.868121v693.279031a159.868121 159.868121 0 0 0 159.868121 159.868121h549.112243a159.868121 159.868121 0 0 0 159.868121-159.868121V268.629333c0-35.995152-14.273939-70.531879-39.749818-95.976727l-132.902788-132.902788A135.726545 135.726545 0 0 0 663.552 0z" fill="#6D9FE5" p-id="2737"></path><path d="M892.431515 172.652606l-132.902788-132.902788A135.726545 135.726545 0 0 0 689.679515 2.544485v149.162667a85.736727 85.736727 0 0 0 85.736727 85.767757h153.134546a135.695515 135.695515 0 0 0-36.119273-64.822303zM254.076121 236.761212c0 5.740606-4.654545 10.364121-10.364121 10.364121h-9.060848v51.727515c0 11.419152-8.688485 20.697212-19.39394 20.697213 10.736485 0 19.393939 9.24703 19.39394 20.666181v51.727516h9.060848a10.333091 10.333091 0 1 1 0 20.697212h-9.060848c-10.364121-2.792727-19.393939-9.309091-19.39394-20.697212v-41.363394a21.410909 21.410909 0 0 0-5.678545-14.646303 18.804364 18.804364 0 0 0-13.684364-6.050909 9.712485 9.712485 0 0 1-9.712485-9.712485v-1.272243c0-5.368242 4.344242-9.712485 9.712485-9.712485 10.705455 0 19.393939-9.24703 19.393939-20.666181V247.125333c0-11.419152 8.688485-20.666182 19.39394-20.666181h9.029818c5.709576 0 10.333091 4.623515 10.333091 10.33309z m135.757576 10.364121v41.394425c0 11.419152 8.688485 20.666182 19.362909 20.666181 5.368242 0 9.712485 4.344242 9.712485 9.712485v1.272243c0 5.368242-4.344242 9.712485-9.712485 9.712485a18.804364 18.804364 0 0 0-13.684364 6.050909 21.410909 21.410909 0 0 0-5.709575 14.646303v41.363394c0 11.419152-8.688485 20.697212-19.362909 20.697212h-9.060849a10.333091 10.333091 0 1 1 0-20.697212h9.029818v-51.727516a21.410909 21.410909 0 0 1 5.709576-14.615272 18.804364 18.804364 0 0 1 13.684364-6.050909 18.804364 18.804364 0 0 1-13.684364-6.08194 21.410909 21.410909 0 0 1-5.709576-14.615273V247.125333h-9.029818a10.333091 10.333091 0 1 1 0-20.666181h9.029818c10.736485 0 19.42497 9.24703 19.42497 20.666181z" fill="#4B80CB" p-id="2738"></path><path d="M254.076121 227.545212c0 5.709576-4.654545 10.364121-10.364121 10.364121h-9.060848v51.696485c0 11.450182-8.688485 20.697212-19.39394 20.697212 10.736485 0 19.393939 9.24703 19.39394 20.697212v51.696485h9.060848a10.333091 10.333091 0 1 1 0 20.697212h-9.060848c-10.364121-2.792727-19.393939-9.309091-19.39394-20.697212V341.333333a21.410909 21.410909 0 0 0-5.678545-14.615272 18.804364 18.804364 0 0 0-13.684364-6.08194 9.712485 9.712485 0 0 1-9.712485-9.681454v-1.303273c0-5.337212 4.344242-9.681455 9.712485-9.681455 10.705455 0 19.393939-9.278061 19.393939-20.697212V237.909333c0-11.450182 8.688485-20.697212 19.39394-20.697212h9.029818c5.709576 0 10.333091 4.654545 10.333091 10.333091z m135.757576 10.364121V279.272727c0 11.419152 8.688485 20.697212 19.362909 20.697212 5.368242 0 9.712485 4.344242 9.712485 9.681455v1.303273c0 5.337212-4.344242 9.681455-9.712485 9.681454a18.804364 18.804364 0 0 0-13.684364 6.08194 21.410909 21.410909 0 0 0-5.709575 14.615272v41.363394c0 11.450182-8.688485 20.697212-19.362909 20.697212h-9.060849a10.333091 10.333091 0 1 1 0-20.697212h9.029818v-51.696485a21.410909 21.410909 0 0 1 5.709576-14.646303 18.804364 18.804364 0 0 1 13.684364-6.050909 18.804364 18.804364 0 0 1-13.684364-6.050909 21.410909 21.410909 0 0 1-5.709576-14.646303V237.909333h-9.029818a10.333091 10.333091 0 1 1 0-20.697212h9.029818c10.736485 0 19.42497 9.24703 19.42497 20.697212z" fill="#FFFFFF" p-id="2739"></path><path d="M321.629091 791.117576c-9.557333 12.877576-22.341818 19.393939-38.353455 19.642182-32.271515 0.620606-48.593455-18.835394-49.089939-58.33697 0.496485-39.780848 16.849455-59.42303 49.089939-58.926546 16.011636 0.496485 28.796121 7.074909 38.353455 19.828364l28.020364-24.917333a96.349091 96.349091 0 0 0-29.106425-23.831273 85.674667 85.674667 0 0 0-38.725818-9.091879 83.688727 83.688727 0 0 0-58.740364 22.372849c-17.43903 15.39103-26.406788 40.246303-26.903272 74.534788 0.496485 33.947152 9.464242 58.492121 26.903272 73.634909a85.116121 85.116121 0 0 0 58.740364 22.745212 81.423515 81.423515 0 0 0 38.725818-9.619394c11.170909-5.957818 20.852364-13.653333 29.106425-23.117576l-28.020364-24.917333zM381.641697 788.945455l-26.561939 26.003393c24.60703 22.55903 52.317091 33.82303 83.099151 33.823031 22.652121-0.248242 41.270303-5.461333 55.823515-15.639273 14.677333-9.929697 22.124606-24.048485 22.341818-42.356364 0-15.639273-4.033939-28.547879-12.163878-38.725818-8.719515-10.426182-22.900364-16.384-42.542546-17.842424l-31.278545-2.358303c-9.216-0.961939-15.639273-3.196121-19.269818-6.702545-4.002909-3.165091-5.895758-6.857697-5.647516-11.108849 0-6.671515 2.482424-12.101818 7.447273-16.35297 4.747636-4.251152 13.032727-6.361212 24.917333-6.361212 10.426182 0 19.642182 1.489455 27.648 4.530424 8.129939 3.413333 15.825455 7.695515 23.086546 12.908607l23.458909-27.461819a111.088485 111.088485 0 0 0-31.278545-19.083636 117.077333 117.077333 0 0 0-19.456-5.08897 151.427879 151.427879 0 0 0-23.45891-1.644606c-20.107636 0-36.708848 4.871758-49.803636 14.584243-13.467152 9.681455-20.293818 24.203636-20.542061 43.597575 0.248242 16.135758 5.461333 28.672 15.639273 37.639758 9.929697 9.216 22.838303 14.553212 38.725818 16.011636l33.450667 2.916849c7.012848 0.217212 12.660364 1.737697 16.911515 4.530424 4.12703 2.668606 6.17503 7.385212 6.175031 14.180849 0 7.633455-3.444364 13.591273-10.364122 17.811393-6.919758 4.251152-15.825455 6.361212-26.717091 6.361213-24.358788 0-44.249212-8.067879-59.640242-24.172606zM560.376242 788.945455l-26.561939 26.003393c24.60703 22.55903 52.317091 33.82303 83.099152 33.823031 22.652121-0.248242 41.270303-5.461333 55.823515-15.639273 14.646303-9.929697 22.124606-24.048485 22.341818-42.356364 0-15.639273-4.033939-28.547879-12.163879-38.725818-8.719515-10.426182-22.900364-16.384-42.542545-17.842424l-31.278546-2.358303c-9.216-0.961939-15.639273-3.196121-19.269818-6.702545-4.033939-3.165091-5.895758-6.857697-5.647515-11.108849 0-6.671515 2.482424-12.101818 7.447273-16.35297 4.747636-4.251152 13.032727-6.361212 24.917333-6.361212 10.426182 0 19.642182 1.489455 27.61697 4.530424 8.129939 3.413333 15.825455 7.695515 23.117575 12.908607l23.458909-27.461819a111.088485 111.088485 0 0 0-31.278545-19.083636 117.077333 117.077333 0 0 0-19.456-5.08897 151.427879 151.427879 0 0 0-23.458909-1.644606c-20.107636 0-36.708848 4.871758-49.803636 14.584243-13.467152 9.681455-20.324848 24.203636-20.542061 43.597575 0.217212 16.135758 5.430303 28.672 15.608242 37.639758 9.929697 9.216 22.869333 14.553212 38.756849 16.011636l33.450667 2.916849c7.012848 0.217212 12.660364 1.737697 16.911515 4.530424 4.096 2.668606 6.17503 7.385212 6.17503 14.180849 0 7.633455-3.475394 13.591273-10.364121 17.811393-6.919758 4.251152-15.825455 6.361212-26.748121 6.361213-24.358788 0-44.218182-8.067879-59.609213-24.172606z" fill="#4B80CB" p-id="2740"></path><path d="M321.629091 782.36703c-9.557333 12.846545-22.341818 19.393939-38.353455 19.642182-32.271515 0.620606-48.593455-18.866424-49.089939-58.368 0.496485-39.749818 16.849455-59.392 49.089939-58.926545 16.011636 0.496485 28.796121 7.105939 38.353455 19.859394l28.020364-24.948364a96.349091 96.349091 0 0 0-29.106425-23.800242 85.674667 85.674667 0 0 0-38.725818-9.091879 83.688727 83.688727 0 0 0-58.740364 22.341818c-17.43903 15.422061-26.406788 40.246303-26.903272 74.565818 0.496485 33.947152 9.464242 58.492121 26.903272 73.634909a85.116121 85.116121 0 0 0 58.740364 22.714182 81.423515 81.423515 0 0 0 38.725818-9.619394c11.170909-5.957818 20.852364-13.653333 29.106425-23.086545l-28.020364-24.917334zM381.641697 780.194909l-26.561939 25.972364c24.60703 22.55903 52.317091 33.82303 83.099151 33.82303 22.652121-0.248242 41.270303-5.430303 55.823515-15.639273 14.677333-9.929697 22.124606-24.048485 22.341818-42.356363 0-15.639273-4.033939-28.547879-12.163878-38.725819-8.719515-10.426182-22.900364-16.35297-42.542546-17.811393l-31.278545-2.358303c-9.216-0.99297-15.639273-3.227152-19.269818-6.733576-4.002909-3.165091-5.895758-6.826667-5.647516-11.077818 0-6.671515 2.482424-12.132848 7.447273-16.384 4.747636-4.251152 13.032727-6.361212 24.917333-6.361213 10.426182 0 19.642182 1.520485 27.648 4.561455 8.129939 3.382303 15.825455 7.695515 23.086546 12.908606l23.458909-27.461818a111.088485 111.088485 0 0 0-31.278545-19.083636 117.077333 117.077333 0 0 0-19.456-5.08897 151.427879 151.427879 0 0 0-23.45891-1.644606c-20.107636 0-36.708848 4.840727-49.803636 14.553212-13.467152 9.681455-20.293818 24.203636-20.542061 43.628606 0.248242 16.135758 5.461333 28.672 15.639273 37.639758 9.929697 9.216 22.838303 14.522182 38.725818 15.980606l33.450667 2.916848c7.012848 0.248242 12.660364 1.768727 16.911515 4.561455 4.12703 2.637576 6.17503 7.385212 6.175031 14.180848 0 7.633455-3.444364 13.560242-10.364122 17.811394-6.919758 4.251152-15.825455 6.361212-26.717091 6.361212-24.358788 0-44.249212-8.067879-59.640242-24.203636zM560.376242 780.194909l-26.561939 25.972364c24.60703 22.55903 52.317091 33.82303 83.099152 33.82303 22.652121-0.248242 41.270303-5.430303 55.823515-15.639273 14.646303-9.929697 22.124606-24.048485 22.341818-42.356363 0-15.639273-4.033939-28.547879-12.163879-38.725819-8.719515-10.426182-22.900364-16.35297-42.542545-17.811393l-31.278546-2.358303c-9.216-0.99297-15.639273-3.227152-19.269818-6.733576-4.033939-3.165091-5.895758-6.826667-5.647515-11.077818 0-6.671515 2.482424-12.132848 7.447273-16.384 4.747636-4.251152 13.032727-6.361212 24.917333-6.361213 10.426182 0 19.642182 1.520485 27.61697 4.561455 8.129939 3.382303 15.825455 7.695515 23.117575 12.908606l23.458909-27.461818a111.088485 111.088485 0 0 0-31.278545-19.083636 117.077333 117.077333 0 0 0-19.456-5.08897 151.427879 151.427879 0 0 0-23.458909-1.644606c-20.107636 0-36.708848 4.840727-49.803636 14.553212-13.467152 9.681455-20.324848 24.203636-20.542061 43.628606 0.217212 16.135758 5.430303 28.672 15.608242 37.639758 9.929697 9.216 22.869333 14.522182 38.756849 15.980606l33.450667 2.916848c7.012848 0.248242 12.660364 1.768727 16.911515 4.561455 4.096 2.637576 6.17503 7.385212 6.17503 14.180848 0 7.633455-3.475394 13.560242-10.364121 17.811394-6.919758 4.251152-15.825455 6.361212-26.748121 6.361212-24.358788 0-44.218182-8.067879-59.609213-24.203636z" fill="#FFFFFF" p-id="2741"></path></svg>