<svg t="1699010747753" class="icon" viewBox="0 0 1024 1024" version="1.1" xmlns="http://www.w3.org/2000/svg" p-id="15336" width="30" height="30"><path d="M677.723838 6.675993h-525.829486c-14.622986 0-22.252978 2.542998-22.252979 25.114976v964.549058c0 6.358994 7.629993 27.658973 22.253979 27.658973H878.009643c14.623986 0 14.623986-21.299979 14.623985-27.657973V233.348772c0-12.716988 4.132996-16.849984 0-19.710981L685.98983 6.675993c-2.860997-2.860997-4.132996 0-8.265992 0z" fill="#E9E9E0" p-id="15337"></path><path d="M701.885815 0v229.215776h202.509802z" fill="#D9D7CA" p-id="15338"></path><path d="M127.733375 578.919435h766.807251q61.67594 0 61.67594 61.675939v226.354779q0 61.67494-61.67594 61.67494H127.733375q-61.67494 0-61.67494-61.67494V640.595374q0-61.67494 61.67494-61.674939z" fill="#22B573" p-id="15339"></path><path d="M260.303246 794.783224a97.916904 97.916904 0 0 1-19.709981 65.807936 70.894931 70.894931 0 0 1-56.588945 22.889977 80.749921 80.749921 0 0 1-31.790969-5.721994V834.839185a44.189957 44.189957 0 0 0 27.339974 9.219991q31.791969 0 31.791969-50.547951V663.485352h48.957952z m226.989778 85.200917h-50.229951l-16.212984-49.593952h-78.842923l-15.894984 49.593952h-49.912952l79.159923-216.499789h54.045947z m-77.569924-85.199917l-25.750975-75.027927a86.789915 86.789915 0 0 1-2.225998-20.34698 78.206924 78.206924 0 0 1-3.813996 18.439982l-25.751975 76.933925z m265.77574-131.299872l-75.345926 216.499789h-52.137949l-74.073928-216.499789h49.594952l46.732954 152.916851a103.003899 103.003899 0 0 1 4.450996 21.299979 114.766888 114.766888 0 0 1 4.768995-21.934979l46.732954-152.280851z m198.059807 216.499789h-50.229951l-16.213984-49.593952h-78.842923l-15.894985 49.593952h-49.912951l79.159923-216.499789h55.635945z m-76.299926-85.199917l-24.478976-75.027927A86.789915 86.789915 0 0 1 769.282749 700.999315a78.206924 78.206924 0 0 1-3.814997 18.438982l-27.021973 75.344927z" fill="#FFFFFF" p-id="15340"></path><path d="M591.251923 354.791654a173.89883 173.89883 0 0 1-35.288966 116.991885 127.164876 127.164876 0 0 1-100.777902 40.692961 144.014859 144.014859 0 0 1-54.045947-9.854991v-77.252924a78.524923 78.524923 0 0 0 48.640953 16.212984q59.131942 0 59.131942-89.651913V121.124882h82.02192z" fill="#22B573" p-id="15341"></path></svg>