<svg t="1699011161141" class="icon" viewBox="0 0 1024 1024" version="1.1" xmlns="http://www.w3.org/2000/svg" p-id="4515" width="30" height="30"><path d="M219.899132 9.626915A165.177594 165.177594 0 0 0 55.988238 174.804509v684.017644a165.177594 165.177594 0 0 0 165.177593 165.177594h513.519913a164.924254 164.924254 0 0 0 165.177594-165.177594V349.609018a62.574947 62.574947 0 0 0-18.240471-44.334477L604.469052 28.120725A62.321608 62.321608 0 0 0 560.134575 9.626915z" fill="#41CC8B" p-id="4516"></path><path d="M881.622867 305.274541L604.469052 28.120725a61.308248 61.308248 0 0 0-32.174163-16.973771 6.080157 6.080157 0 0 0-7.093517 6.333497V152.003921a193.044979 193.044979 0 0 0 193.04498 193.044979H892.009802a6.333497 6.333497 0 0 0 6.333497-7.093516 63.081627 63.081627 0 0 0-16.720432-32.680843z" fill="#05B25F" p-id="4517"></path><path d="M765.339868 313.634757h123.376516a54.721411 54.721411 0 0 0-6.840177-8.360216L604.469052 28.120725a54.721411 54.721411 0 0 0-8.360216-6.840176V144.403725A169.231032 169.231032 0 0 0 765.339868 313.634757z" fill="#B0F9D7" p-id="4518"></path><path d="M184.431551 463.105279h45.094496l34.960902 86.895575c1.773379 4.560118 3.800098 10.640274 6.333497 17.73379l6.080156 17.987131 3.293419-8.866895 3.040078-9.120236c2.533399-7.600196 4.560118-13.680353 6.080157-17.73379l34.200882-86.895575h45.094497v185.698123h-35.974262v-77.522c0-7.600196 0-17.733791 1.773379-30.654124 0-4.560118 0-9.880255 1.52004-15.707071V510.226494l-16.467092 43.827797L288.554236 633.34967h-23.560607L233.326145 554.054291l-16.467091-43.827797V524.920207c0 6.080157 1.520039 11.400294 1.773379 15.707071 1.266699 12.920333 2.026719 23.053928 2.026719 30.654124v77.522H184.431551zM435.99804 626.256154a97.789189 97.789189 0 0 1-25.333987-70.935163 96.26915 96.26915 0 0 1 25.333987-70.681823 88.415614 88.415614 0 0 1 65.868365-25.333987 88.922294 88.922294 0 0 1 66.121706 25.333987 97.029169 97.029169 0 0 1 25.333987 70.681823 97.789189 97.789189 0 0 1-25.333987 70.935163 86.895575 86.895575 0 0 1-66.121706 25.333987 86.135555 86.135555 0 0 1-65.868365-25.333987z m101.335947-23.560608a76.00196 76.00196 0 0 0 13.680353-47.374555 73.468562 73.468562 0 0 0-13.680353-47.121216 47.627895 47.627895 0 0 0-72.455202 0 76.00196 76.00196 0 0 0-13.427013 47.121216 76.00196 76.00196 0 0 0 13.427013 47.374555 46.361196 46.361196 0 0 0 72.455202 0zM606.495771 463.105279h42.814437l26.854026 90.442333c1.520039 4.306778 3.040078 9.373575 4.560118 14.947052l4.053438 14.947052c3.293418 12.666993 6.333497 22.547248 8.613556 29.894105h1.520039l4.306777-15.200393 4.306778-14.693712c3.546758-12.920333 6.333497-23.053928 8.613556-29.894104l27.867385-90.442333h41.294399l-62.574948 185.698123h-49.907954z" fill="#F5F6FA" p-id="4519"></path></svg>