<svg t="1699013624631" class="icon" viewBox="0 0 1663 1024" version="1.1" xmlns="http://www.w3.org/2000/svg" p-id="11098" width="30" height="30"><path d="M947.76183 293.445708c-149.924733-50.763989-185.30171 250.663633-263.683413 317.472198-134.143182 120.728864 48.791295-294.062898 70.359414-298.66585-138.746135-64.967384-215.944221 193.455511-306.819651 339.566369-68.255208 47.607678 57.076609-292.090204 94.426279-380.729914 142.954548-28.406792 294.851975-48.265243 411.109401-48.659782 78.907754-47.476166-327.072642 0-391.645488 7.233211 27.091662-54.183325 56.156019-97.319564 85.746427-115.599861-70.490927-47.476166-157.815509 56.156019-183.065991 129.014179-103.237645 16.17609-191.745843 34.324873-236.723263 51.29004s-41.558084 73.910263-13.151292 63.389229a1877.741528 1877.741528 0 0 1 226.859794-65.098897c-56.287531 126.909972-100.212848 276.17714-110.865395 337.593676-26.302585 148.083552 65.756462 147.162962 110.470856 88.771223 48.659782-63.915281 150.187759-288.539355 165.837797-312.211681 4.602952-8.022288 10.915573-3.813875 7.62775 3.419336-113.36414 226.333742-103.763697 313.921349-11.836164 294.457437 41.426571-8.942879 112.838089-79.959858 131.512924-116.783477 3.813875-8.942879 11.836163-8.022288 10.126496-4.208413-71.806056 186.616839-163.076026 337.593676-223.96651 384.938328-55.76148 42.7417-97.319564-49.974911 100.212848-182.802964 29.327382-19.858452 15.650038-46.950114-17.228193-37.612696-103.106132 24.987456-437.938037 103.763697-540.255091 223.57197 0 8.022288 14.334909 4.997491 21.17358 0.789078 165.311745-98.634693 301.033083-138.08857 456.744385-170.703775 29.195869 0-5.523543 13.151292-14.86096 17.885757-213.313963 90.743917-188.194994 273.152343 24.592917 176.75337 212.261859-71.016979 321.023047-587.599744 397.300543-703.068091zM257.055953 795.035999c106.525468-110.076317-52.60517-259.606512-16.307602-353.901278 27.486201-41.426571 85.877939-1.315129 37.34967 54.051812 55.366941 33.404283 103.369158-66.940078 52.60517-89.165762-115.073808-60.101406-215.812708 55.366941-170.966801 189.115584 44.714394 83.905245 46.818601 215.286656-54.314838 230.542156-50.36945 2.498746-16.965167-112.969602 41.032032-141.770932 4.997491-2.498746 12.230702-5.918082 5.523543-14.334909-71.543031-8.022288-113.36414 24.987456-137.562518 71.016979-70.227901 134.143182 133.222592 183.592042 242.641344 54.44635z m1383.910499-143.349087c-38.270261-29.458895-962.411577 20.910555-809.59356 95.741409l13.151292-3.024797c151.897427-29.590408 520.39664-55.498454 735.288758-14.334909 26.302585 4.602952 103.237645-72.726647 61.679561-78.907754z m-639.152811-22.751735c54.183325-27.091662 134.537721-194.639127 187.405917-286.435149 3.813875-6.707159 10.652547-1.315129 6.838672 3.419336-218.969018 373.365191 61.679561 263.025848 125.989381 124.805765 21.436607-13.151292-12.362215 37.481183-21.173581 59.180816-34.587899 79.959858 86.79853 76.803548 106.262443 23.277787-60.101406-1.183616 83.773733-284.72548 98.50318-302.479725-135.326799-70.753953-214.497579 293.142307-273.678395 276.177141-61.679561 3.419336 71.148492-266.839723 92.716612-275.25655-13.151292-19.069374-97.319564-11.047086-144.664217 61.679561-15.518525 17.228193-218.837505 417.158995-180.698757 193.323998 31.03705-171.887392 334.568878-373.75973 277.492269-485.677228-26.302585-40.900519-113.758679-22.751736-170.04621 61.811075-92.979637 143.743626-360.73995 619.294359-104.947314 546.173173z m511.059223-228.437949c33.141257 55.235428 49.317346 144.664216-19.463913 162.418461-24.987456 4.208414-18.148783-74.041776 24.592917-97.319564 3.813875-2.104207 9.205905-12.230702 4.208413-18.148783-54.183325-3.024797-84.694323 22.883249-101.133438 57.076609-52.60517 180.961783 302.479725 68.649746 187.405916-119.676761-96.004434-149.135656 52.60517-146.899936 1.31513-70.227902 43.399265 21.042068 74.962367-52.60517 36.297567-67.334617-89.165762-38.007235-172.544956 57.997199-133.222592 153.212557z m-455.955308-56.287532c46.950114-99.686796 116.520451-239.485034 160.182742-291.827178 113.890192-37.875722-86.79853 235.276621-129.014179 263.025848-11.178599 9.600443-33.667309 44.188342-31.694614 27.88074z m0 0" fill="#FF6347" p-id="11099"></path></svg>