<svg t="1697430182576" class="icon" viewBox="0 0 1024 1024" version="1.1" xmlns="http://www.w3.org/2000/svg" p-id="1526" width="30" height="30"><path d="M896 64H128a64 64 0 0 0-64 64v768a64 64 0 0 0 64 64h768a64 64 0 0 0 64-64V128a64 64 0 0 0-64-64z m-312.96 496.32H460.8v323.52h-70.4V560.32H268.16v-70.4h314.88z m230.4 308.16a188.16 188.16 0 0 1-81.92 16.32A311.36 311.36 0 0 1 617.6 864v-80.64c32 24 121.28 43.52 164.8 22.08a32 32 0 0 0 19.2-38.08c-1.92-20.8-26.24-32-66.24-50.88-48.32-21.76-114.56-51.2-110.08-128a104.64 104.64 0 0 1 74.56-96 262.72 262.72 0 0 1 166.4 7.04V576a202.88 202.88 0 0 0-142.72-17.92 34.88 34.88 0 0 0-27.84 32c0 24.96 15.68 36.8 68.48 60.48 45.44 20.16 102.08 45.76 107.52 109.12a102.4 102.4 0 0 1-58.24 108.8z" fill="#3178C6" p-id="1527"></path></svg>