<svg t="1697466548792" class="icon" viewBox="0 0 1024 1024" version="1.1" xmlns="http://www.w3.org/2000/svg" p-id="5282" width="30" height="30"><path d="M967.111111 281.6V910.222222c0 62.862222-50.915556 113.777778-113.777778 113.777778H170.666667c-62.862222 0-113.777778-50.915556-113.777778-113.777778V113.777778c0-62.862222 50.915556-113.777778 113.777778-113.777778h514.844444L967.111111 281.6z" fill="#BABABA" p-id="5283"></path><path d="M685.511111 167.822222V0L967.111111 281.6H799.288889c-62.862222 0-113.777778-50.915556-113.777778-113.777778" fill="#979797" p-id="5284"></path><path d="M614.229333 568.035556c-0.540444-54.044444 44.088889-79.928889 46.08-81.237334-25.088-36.693333-64.142222-41.699556-78.051555-42.268444-33.223111-3.356444-64.824889 19.541333-81.692445 19.541333-16.782222 0-42.837333-19.057778-70.4-18.545778-36.209778 0.540444-69.603556 21.048889-88.234666 53.475556-37.632 65.308444-9.671111 162.019556 27.022222 214.983111 17.92 25.912889 39.310222 55.04 67.356444 53.987556 27.022222-1.080889 37.262222-17.464889 69.888-17.464889 32.654222 0 41.841778 17.464889 70.456889 16.924444 29.070222-0.540444 47.502222-26.396444 65.28-52.394667 20.565333-30.065778 29.070222-59.192889 29.553778-60.700444-0.654222-0.284444-56.689778-21.76-57.258667-86.300444z m-53.731555-158.577778c14.904889-18.062222 24.974222-43.121778 22.186666-68.124445-21.418667 0.853333-47.416889 14.279111-62.805333 32.312889-13.824 15.985778-25.884444 41.500444-22.670222 65.991111 23.950222 1.877333 48.384-12.145778 63.288889-30.151111z" fill="#FFFFFF" p-id="5285"></path></svg>