<svg t="1697466509514" class="icon" viewBox="0 0 1024 1024" version="1.1" xmlns="http://www.w3.org/2000/svg" p-id="4757" width="30" height="30"><path d="M967.111111 281.6V910.222222c0 62.862222-50.915556 113.777778-113.777778 113.777778H170.666667c-62.862222 0-113.777778-50.915556-113.777778-113.777778V113.777778c0-62.862222 50.915556-113.777778 113.777778-113.777778h514.844444L967.111111 281.6z" fill="#BABABA" p-id="4758"></path><path d="M685.511111 167.822222V0L967.111111 281.6H799.288889c-62.862222 0-113.777778-50.915556-113.777778-113.777778" fill="#979797" p-id="4759"></path><path d="M586.865778 521.671111a148.650667 148.650667 0 0 1-3.754667 49.265778l44.629333 22.556444a164.664889 164.664889 0 0 1-10.154666 26.254223l-4.266667 8.448a162.986667 162.986667 0 0 1-15.104 23.751111l-44.657778-22.528a149.048889 149.048889 0 0 1-37.404444 32.312889l15.587555 47.388444a192.910222 192.910222 0 0 1-62.179555 20.48l-15.587556-47.416889a148.053333 148.053333 0 0 1-49.322666-3.783111l-22.528 44.657778a163.612444 163.612444 0 0 1-26.254223-10.154667l-8.448-4.266667a158.350222 158.350222 0 0 1-23.751111-15.132444l22.528-44.600889a147.569778 147.569778 0 0 1-32.312889-37.461333l-47.416888 15.644444a195.868444 195.868444 0 0 1-12.856889-30.264889l-7.594667-31.943111 47.416889-15.616a148.650667 148.650667 0 0 1 3.754667-49.294222l-44.600889-22.528c2.190222-7.452444 4.892444-14.904889 8.078222-21.959111l8.533333-16.952889c3.84-6.769778 8.220444-13.368889 12.885334-19.569778l44.629333 22.528c10.353778-12.515556 23.04-23.608889 37.432889-32.284444l-15.587556-47.416889c9.557333-5.034667 19.626667-9.386667 30.236445-12.885333L410.737778 341.333333l15.587555 47.416889a147.370667 147.370667 0 0 1 49.322667 3.754667l22.528-44.629333c7.452444 2.190222 14.876444 4.920889 21.959111 8.106666l4.266667 2.048 8.504889 4.266667 4.181333 2.275555c6.741333 3.754667 13.368889 8.135111 19.569778 12.828445l-22.528 44.657778a147.911111 147.911111 0 0 1 32.284444 37.404444l47.416889-15.587555a195.527111 195.527111 0 0 1 20.451556 62.179555l-47.416889 15.587556z" fill="#FFFFFF" p-id="4760"></path><path d="M520.618667 508.984889a84.707556 84.707556 0 1 1-160.938667 52.963555 84.707556 84.707556 0 0 1 160.938667-52.963555" fill="#BABABA" p-id="4761"></path><path d="M742.371556 771.84c-4.864 6.826667-10.865778 12.743111-17.521778 17.436444l9.557333 23.096889c-3.896889 2.56-8.106667 4.807111-12.401778 6.656l-4.408889 1.792a79.644444 79.644444 0 0 1-13.454222 4.067556l-9.557333-23.096889c-7.992889 1.365333-16.440889 1.422222-24.746667 0l-9.557333 23.04a97.792 97.792 0 0 1-30.208-12.515556l9.557333-23.04a74.524444 74.524444 0 0 1-17.464889-17.521777l-23.096889 9.557333a82.488889 82.488889 0 0 1-6.627555-12.430222l-1.792-4.380445a80.554667 80.554667 0 0 1-4.096-13.454222l23.096889-9.557333a75.264 75.264 0 0 1 0-24.746667l-23.068445-9.557333a98.986667 98.986667 0 0 1 5.006223-15.644445l7.566222-14.592 23.04 9.557334c4.835556-6.826667 10.894222-12.743111 17.521778-17.436445l-9.557334-23.096889c3.271111-2.104889 6.741333-4.039111 10.24-5.688889l8.789334-3.612444c3.640889-1.308444 7.452444-2.389333 11.235555-3.214222l9.557333 23.096889c8.021333-1.365333 16.440889-1.422222 24.718223 0l9.585777-23.068445c5.233778 1.223111 10.496 2.844444 15.644445 5.006222l14.592 7.537778-9.585778 23.04c6.826667 4.892444 12.771556 10.894222 17.436445 17.521778l23.096888-9.528889c2.133333 3.271111 4.067556 6.712889 5.688889 10.24l0.967111 2.161778 1.792 4.380444 0.853334 2.218667c1.336889 3.640889 2.417778 7.480889 3.214222 11.264l-23.096889 9.557333c1.393778 7.964444 1.422222 16.440889 0 24.718223l23.04 9.557333a96 96 0 0 1-12.515555 30.236444l-23.04-9.557333z" fill="#FFFFFF" p-id="4762"></path><path d="M721.408 745.415111a42.382222 42.382222 0 1 1-78.250667-32.455111 42.382222 42.382222 0 0 1 78.222223 32.426667" fill="#BABABA" p-id="4763"></path></svg>