<svg t="1699011757216" class="icon" viewBox="0 0 1024 1024" version="1.1" xmlns="http://www.w3.org/2000/svg" p-id="13885" width="30" height="30"><path d="M910.9 289.1v634.6c0 15.7-12.7 28.4-28.4 28.4H224.9c-12 0-21.6-9.7-21.6-21.6V72.3c0-8.8 7.1-15.9 15.9-15.9h443.1c0.9 0 1.4 1.1 0.8 1.8-0.4 0.4-0.4 1.1 0.1 1.5l247.5 228.6c0.1 0.2 0.2 0.5 0.2 0.8z" fill="#F4F4F4" p-id="13886"></path><path d="M662.5 273.7V56.4L911 288.6H677.3c-8.2 0-14.8-6.7-14.8-14.9zM439.1 347.7H220.8c-58.4 0-105.7-47.3-105.7-105.7 0-58.4 47.3-105.7 105.7-105.7H439c58.4 0 105.7 47.3 105.7 105.7 0.1 58.4-47.2 105.7-105.6 105.7z" fill="#F4A800" p-id="13887"></path><path d="M626.5 448.8c-43.3 0-80.8 25.4-98.3 62.1-5.4 11.4-9 23.8-10.1 36.9 9.9-4.7 21-7.3 32.6-7.3h0.8c2.6-11.5 7.8-22 14.9-30.9 14.1-17.6 35.8-28.9 60-28.9 42.4 0 76.9 34.5 76.9 76.9 0 30.7-18.1 57.3-44.2 69.6-9.9 4.7-21 7.3-32.6 7.3h-0.8c-2.6 11.5-7.8 22-14.9 30.9 5.1 0.8 10.4 1.1 15.8 1.1 7.7 0 15.3-0.8 22.5-2.4 49.3-10.4 86.4-54.2 86.4-106.5-0.2-59.9-49-108.8-109-108.8zM519.3 577.2c6.8 37.5 32.9 68.4 67.5 81.9-6.7-37.5-32.8-68.4-67.5-81.9z" fill="#F9E4B7" p-id="13888"></path><path d="M566.5 509.7c-5.1-0.8-10.4-1.2-15.8-1.2-7.7 0-15.3 0.8-22.5 2.4-34.6 7.3-63.1 31-77.1 62.6-5.2 11.8-8.4 24.6-9.1 38.1 10-5.6 21.3-9.1 33.4-9.8 2.4-11.7 7.5-22.5 14.7-31.6 7.4-9.5 17-17.2 28-22.4 9.9-4.7 21-7.3 32.6-7.3h0.8c42 0.4 76 34.8 76 76.9 0 5.9-0.7 11.6-1.9 17.1-2.6 11.5-7.8 22-14.9 30.9-6.1 7.6-13.7 14.1-22.2 18.9-10 5.6-21.3 9.1-33.4 9.8-2.4 11.7-7.5 22.5-14.7 31.6 3.4 0.3 6.9 0.5 10.4 0.5 9.9 0 19.5-1.3 28.7-3.8 30.8-8.4 56.1-30 69.6-58.2 5.4-11.4 9-23.8 10.1-36.9 0.3-3.3 0.5-6.5 0.5-9.9-0.2-54.7-40.7-100-93.2-107.7z" fill="#FFCA55" p-id="13889"></path><path d="M586.8 659.1c-6.8-37.5-32.8-68.4-67.5-81.9-9.2-3.6-19-6-29.3-7-3.4-0.3-6.9-0.5-10.4-0.5-9.9 0-19.5 1.3-28.7 3.8-46.2 12.6-80.2 54.9-80.2 105 0 60 48.8 108.9 108.9 108.9 44.4 0 82.7-26.8 99.6-65 5.2-11.8 8.4-24.6 9.1-38.1 0.1-1.9 0.1-3.9 0.1-5.8 0.2-6.6-0.4-13.1-1.6-19.4z m-46.5 66.7c-14.1 18-36 29.6-60.6 29.6-42.4 0-76.9-34.5-76.9-76.9 0-28.7 15.8-53.7 39.1-66.9 10-5.6 21.3-9.1 33.4-9.8 1.4-0.1 2.9-0.1 4.3-0.1 42.4 0 76.9 34.5 76.9 76.9 0 5.3-0.5 10.6-1.6 15.6-2.3 11.7-7.4 22.5-14.6 31.6z" fill="#F4A800" p-id="13890"></path><path d="M256.2 252.8h19v20.4c-4.2 2-9.2 3.1-15 3.1-9.2 0-16.2-2.8-21.6-8.5-5.3-5.7-8-13.8-8-24.2 0-10.1 2.9-18.3 8.7-24.4 5.8-6.2 13.1-9.1 22.1-9.1 9.2 0 17.3 2.1 23.9 6.3l3.1 1.9v-17.1l-1.2-0.5c-6.8-3.1-15.1-4.7-24.8-4.7-13.9 0-25.4 4.6-34.3 13.6-8.9 9-13.4 20.7-13.4 34.7 0 13.8 4.1 25.1 12.2 33.4 8.1 8.4 18.9 12.6 32 12.6 11.3 0 21.6-2.6 30.6-7.7l1-0.6v-43.2h-34.3v14zM319.5 197.4h15.3v91.4h-15.3zM415.8 211.5v-14.1h-49.1v91.5H382v-38.2h31.3v-14H382v-25.2z" fill="#FFFFFF" p-id="13891"></path></svg>