<svg t="1697430019811" class="icon" viewBox="0 0 1150 1024" version="1.1" xmlns="http://www.w3.org/2000/svg" p-id="1535" width="30" height="30"><path d="M1020.605598 101.552796v746.413049c0 56.08507-45.467726 101.552796-101.552796 101.552796H187.872672c-56.08507 0-101.552796-45.467726-101.552796-101.552796V312.274847h58.392858c140.213945 0 253.88199-113.668044 253.88199-253.881989V0h520.458078c56.08507 0 101.552796 45.467726 101.552796 101.552796z" fill="#E2E2E2" p-id="1536"></path><path d="M398.594724 0v185.333852c0 70.106973-56.834022 126.940995-126.940995 126.940995H86.319876L398.594724 0z" fill="#ADADAD" p-id="1537"></path><path d="M0 484.9146m38.082298 0l1030.760878 0q38.082298 0 38.082298 38.082298l0 423.982923q0 38.082298-38.082298 38.082298l-1030.760878 0q-38.082298 0-38.082298-38.082298l0-423.982923q0-38.082298 38.082298-38.082298Z" fill="#8ACD54" p-id="1538"></path><path d="M152.260646 734.861419v96.690955c0 12.397058-5.785971 18.183028-17.355373 17.355373-11.571941 0.827655-17.355373-4.958315-17.355373-17.355373v-214.461733c-0.827655-13.222174 4.958315-19.421972 17.355373-18.594317 12.397058 0 18.180489 6.199798 17.355373 18.596856v86.776864h114.048867v-86.776864c0-12.397058 5.783432-18.596856 17.352834-18.596856 12.397058-0.825116 18.183028 5.372143 17.355373 18.596856v213.22025c0 13.222174-5.783432 19.421972-17.355373 18.594317-11.569402 0.827655-17.352834-5.372143-17.352834-18.594317v-95.45455H152.260646z m260.328053 96.690955v-193.386989h-55.78549c-14.877485 0-21.89986-5.783432-21.072205-17.355373-0.827655-11.569402 6.194721-16.941545 21.072205-16.113889h148.759613c13.222174-0.827655 19.833261 4.958315 19.833261 17.355372 0 9.916631-6.611087 15.288773-19.833261 16.11389h-57.024434v193.386989c0 12.397058-5.785971 18.183028-17.355372 17.355373-12.397058-0.825116-18.594317-6.611087-18.594317-17.355373z m185.948247-152.476445v147.51813c0 14.877485-6.197259 22.316227-18.594317 22.316227-11.571941 1.650233-16.941545-5.788509-16.116429-22.316227v-203.303619c-0.825116-17.355373 6.611087-25.619232 22.316227-24.794116 9.914092 0 17.766662 6.611087 23.550093 19.8358l71.89938 173.553728 71.901918-173.553728c6.611087-13.224713 14.463657-19.8358 23.552632-19.8358 15.702601-0.825116 23.141343 7.438742 22.316227 24.794116v204.542563c0.825116 14.877485-4.544488 21.902399-16.116429 21.074744-12.397058 0-18.594317-7.024915-18.594317-21.072205v-148.759613l-63.224232 154.956872c-4.13066 9.916631-10.744286 14.877485-19.833261 14.877485-8.263859 0-14.463657-4.960854-18.594317-14.877485l-64.463175-154.956872z m283.880685-61.982749v192.145506h99.173921c14.049829-0.825116 20.660916 4.958315 19.833261 17.355373 0.827655 11.569402-5.783432 16.941545-19.833261 16.116429h-112.809923c-14.049829 0-21.072205-7.024915-21.072205-21.074744v-204.545103c0-12.394519 5.783432-18.594317 17.352834-18.594317 12.397058 0 18.183028 6.199798 17.355373 18.596856z" fill="#555555" p-id="1539"></path></svg>