<svg t="1699010633265" class="icon" viewBox="0 0 1024 1024" version="1.1" xmlns="http://www.w3.org/2000/svg" p-id="1652" width="30" height="30"><path d="M967.111111 281.6V910.222222c0 62.862222-50.915556 113.777778-113.777778 113.777778H170.666667c-62.862222 0-113.777778-50.915556-113.777778-113.777778V113.777778c0-62.862222 50.915556-113.777778 113.777778-113.777778h514.844444L967.111111 281.6z" fill="#BABABA" p-id="1653"></path><path d="M685.511111 167.822222V0L967.111111 281.6H799.288889c-62.862222 0-113.777778-50.915556-113.777778-113.777778" fill="#979797" p-id="1654"></path><path d="M512 341.333333a227.555556 227.555556 0 1 1 0 455.111111 227.555556 227.555556 0 0 1 0-455.111111z m71.224889 253.496889a74.808889 74.808889 0 0 1-39.168 42.808889l53.418667 114.574222a201.784889 201.784889 0 0 0 104.704-114.090666l-118.954667-43.292445zM512 518.314667a50.574222 50.574222 0 1 0 0 101.148444 50.574222 50.574222 0 0 0 0-101.148444z m-85.475556-132.750223a201.699556 201.699556 0 0 0-104.704 114.090667l118.954667 43.292445a74.723556 74.723556 0 0 1 39.168-42.808889z" fill="#FFFFFF" p-id="1655"></path><path d="M534.926222 558.222222a25.258667 25.258667 0 1 1-45.795555 21.361778 25.258667 25.258667 0 0 1 45.795555-21.390222" fill="#FFFFFF" p-id="1656"></path></svg>