<svg t="1697430139720" class="icon" viewBox="0 0 1150 1024" version="1.1" xmlns="http://www.w3.org/2000/svg" p-id="4250" width="30" height="30"><path d="M1020.605598 101.552796v746.413049c0 56.08507-45.467726 101.552796-101.552796 101.552796H187.872672c-56.08507 0-101.552796-45.467726-101.552796-101.552796V312.274847h58.392858c140.213945 0 253.88199-113.668044 253.88199-253.881989V0h520.458078c56.08507 0 101.552796 45.467726 101.552796 101.552796z" fill="#E2E2E2" p-id="4251"></path><path d="M398.594724 0v185.333852c0 70.106973-56.834022 126.940995-126.940995 126.940995H86.319876L398.594724 0z" fill="#ADADAD" p-id="4252"></path><path d="M0 484.9146m38.082298 0l1030.760878 0q38.082298 0 38.082298 38.082298l0 423.982923q0 38.082298-38.082298 38.082298l-1030.760878 0q-38.082298 0-38.082298-38.082298l0-423.982923q0-38.082298 38.082298-38.082298Z" fill="#F6C358" p-id="4253"></path><path d="M482.802302 779.486256v-163.634559c0-11.569402 5.785971-17.355373 17.355373-17.355373 12.397058-0.825116 18.180489 5.372143 17.355372 18.596856v162.393076c0 45.455031-23.552632 68.596375-70.660435 69.421491-33.057974-0.825116-55.371662-16.527718-66.941064-47.107803-4.133199-14.04729 0-22.313688 12.394519-24.791576 9.919169-1.652772 16.944084 2.894255 21.074744 13.633463 5.785971 17.357912 17.355373 26.449426 34.710745 27.274542 23.141343 0 34.710746-12.808346 34.710746-38.430117z m71.899379 11.158113v1.238944c7.438742-7.438742 16.116429-7.024915 26.033059 1.238945 14.049829 15.702601 31.81903 23.96646 53.305063 24.794115 37.191173-0.825116 56.199317-14.463657 57.024434-40.908005-0.825116-22.316227-21.486033-36.777345-61.982749-43.388432-50.413347-10.744286-76.032578-33.055435-76.857695-66.941064 3.305544-42.974604 31.816491-65.704659 85.535381-68.182548 33.057974 0 57.438261 8.677686 73.140862 26.03306 4.958315 4.958315 7.438742 9.916631 7.438743 14.877484 0 6.611087-2.894255 11.155575-8.680225 13.633463-6.611087 4.133199-14.461118 2.066599-23.552633-6.194721-11.569402-10.746825-27.685831-16.116429-48.346747-16.116428-31.405202 1.650233-48.346747 13.633463-50.827174 35.94969-0.825116 18.180489 21.074744 30.991374 65.704659 38.427577 47.105264 11.571941 71.485552 35.538401 73.138323 71.89938-1.652772 47.110342-32.230319 71.076802-91.735179 71.901918-36.363517-1.652772-64.049348-14.049829-83.057493-37.188634-3.305544-6.613626-2.064061-13.636002 3.719371-21.074744z" fill="#555555" p-id="4254"></path></svg>