<svg t="1699013770068" class="icon" viewBox="0 0 1024 1024" version="1.1" xmlns="http://www.w3.org/2000/svg" p-id="26271" width="30" height="30"><path d="M1018.88 514.048c0-66.56-82.944-131.072-211.968-169.984 29.696-131.072 16.384-235.52-41.984-269.312-14.336-7.168-29.696-11.264-47.104-11.264v47.104c9.216 0 18.432 2.048 23.552 5.12 27.648 16.384 41.984 77.824 30.72 155.648-2.048 20.48-5.12 39.936-9.216 59.392-41.984-9.216-82.944-18.432-131.072-23.552-27.648-39.936-55.296-71.68-84.992-103.424 68.608-61.44 131.072-97.28 173.056-97.28V59.392c-55.296 0-131.072 41.984-206.848 110.592C440.32 99.328 364.544 60.416 309.248 60.416v47.104c44.032 0 105.472 32.768 173.056 96.256-29.696 30.72-57.344 64.512-84.992 103.424-47.104 5.12-92.16 11.264-131.072 23.552-4.096-21.504-7.168-41.984-11.264-59.392-9.216-77.824 2.048-141.312 29.696-155.648 5.12-4.096 14.336-5.12 23.552-5.12V62.464c-18.432 0-32.768 4.096-47.104 11.264-57.344 32.768-70.656 138.24-41.984 269.312C87.04 382.976 4.096 446.464 4.096 513.024s82.944 130.048 211.968 169.984c-29.696 130.048-16.384 235.52 41.984 269.312 14.336 7.168 29.696 11.264 47.104 11.264 55.296 0 131.072-41.984 206.848-110.592 75.776 70.656 150.528 108.544 206.848 108.544 18.432 0 32.768-4.096 47.104-11.264 57.344-32.768 70.656-138.24 41.984-269.312 128-36.864 210.944-100.352 210.944-166.912zM749.568 375.808c-7.168 27.648-18.432 54.272-27.648 80.896-7.168-16.384-18.432-32.768-27.648-49.152-9.216-16.384-20.48-32.768-29.696-49.152 29.696 5.12 57.344 10.24 84.992 17.408zM655.36 594.944c-16.384 27.648-32.768 54.272-51.2 77.824-29.696 4.096-59.392 5.12-92.16 5.12s-61.44-2.048-94.208-4.096c-18.432-25.6-32.768-51.2-50.176-77.824-16.384-27.648-29.696-54.272-44.032-80.896 14.336-27.648 27.648-54.272 44.032-80.896 16.384-27.648 32.768-54.272 50.176-77.824 30.72-2.048 61.44-4.096 94.208-4.096s61.44 2.048 94.208 4.096c18.432 25.6 32.768 51.2 51.2 77.824 16.384 27.648 29.696 54.272 44.032 80.896-16.384 26.624-32.768 52.224-46.08 79.872z m66.56-27.648c11.264 27.648 21.504 54.272 29.696 80.896-27.648 5.12-55.296 11.264-84.992 16.384 9.216-16.384 20.48-32.768 29.696-49.152 9.216-11.264 16.384-29.696 25.6-48.128zM512 790.528c-20.48-20.48-39.936-44.032-55.296-66.56 20.48 0 36.864 2.048 55.296 2.048s39.936 0 55.296-2.048C551.936 747.52 532.48 769.024 512 790.528z m-153.6-122.88c-29.696-4.096-57.344-9.216-82.944-16.384 7.168-27.648 18.432-54.272 27.648-80.896 7.168 16.384 18.432 32.768 27.648 49.152 8.192 17.408 18.432 31.744 27.648 48.128z m153.6-429.056c20.48 20.48 39.936 44.032 55.296 66.56-20.48 0-36.864-2.048-55.296-2.048s-39.936 0-55.296 2.048c15.36-25.6 34.816-46.08 55.296-66.56zM358.4 360.448c-9.216 16.384-20.48 32.768-29.696 49.152l-27.648 49.152c-11.264-27.648-21.504-54.272-29.696-80.896 28.672-9.216 58.368-14.336 87.04-17.408zM171.008 618.496c-73.728-30.72-121.856-71.68-121.856-105.472 0-32.768 47.104-73.728 121.856-105.472l55.296-21.504c11.264 41.984 27.648 80.896 47.104 126.976-20.48 44.032-34.816 84.992-47.104 124.928-16.384-4.096-36.864-10.24-55.296-19.456z m110.592 294.912c-27.648-16.384-41.984-77.824-30.72-155.648 2.048-20.48 5.12-39.936 9.216-59.392 41.984 9.216 82.944 18.432 131.072 23.552 27.648 39.936 55.296 71.68 84.992 103.424-68.608 61.44-131.072 97.28-173.056 97.28-5.12-3.072-14.336-5.12-21.504-9.216z m490.496-156.672c9.216 77.824-2.048 141.312-29.696 155.648-5.12 4.096-14.336 5.12-23.552 5.12-44.032 0-105.472-32.768-173.056-96.256 29.696-30.72 57.344-64.512 84.992-103.424 47.104-5.12 92.16-11.264 131.072-23.552 5.12 22.528 8.192 44.032 10.24 62.464z m80.896-138.24c-18.432 7.168-36.864 15.36-56.32 22.528-11.264-41.984-27.648-80.896-47.104-126.976 20.48-44.032 34.816-84.992 47.104-124.928 20.48 5.12 39.936 14.336 57.344 21.504 73.728 30.72 121.856 71.68 121.856 105.472-4.096 30.72-51.2 71.68-122.88 102.4z" fill="#5DD4FA" p-id="26272"></path><path d="M512 514.048m-95.232 0a95.232 95.232 0 1 0 190.464 0 95.232 95.232 0 1 0-190.464 0Z" fill="#5DD4FA" p-id="26273"></path></svg>