<svg t="1699013747045" class="icon" viewBox="0 0 1024 1024" version="1.1" xmlns="http://www.w3.org/2000/svg" p-id="22096" width="30" height="30"><path d="M104.192 292.8c-45.44 0-65.6 17.6-65.6 72.32 0 36.16 5.12 56.32 5.12 87.36 0 17.6-10.848 36.16-43.648 37.76v43.712c32.8 0.8 43.616 19.392 43.616 36.992 0 31.04-5.12 49.6-5.12 85.76 0 54.72 20.16 72.32 64.8 72.32h32.832V690.24H126.08c-20.96 0-27.68-8.448-27.68-36.128s2.56-51.392 2.56-82.432c0-38.72-12.608-53.696-37.76-59.616v-2.56c25.28-5.92 37.76-20.96 37.76-59.68 0-30.24-2.56-54.784-2.56-82.464s5.92-35.296 27.68-35.296h22.56v241.312c0 51.36 17.6 84.928 68.96 84.928 16 0 28.608-2.56 37.76-5.92l-8.448-54.72c-4.96 1.344-7.36 1.344-9.92 1.344-5.952 0-13.44-5.184-13.44-21.024V292.8H104.16z m783.616 0.192v38.752h10.144c22.72 0 27.68 7.552 27.68 35.392 0 26.08-2.56 52.128-2.56 82.368 0 38.72 12.608 53.76 37.76 59.68v2.56c-25.28 5.92-37.76 20.96-37.76 59.68 0 30.24 2.56 54.72 2.56 82.4 0 28.64-5.92 36.16-27.68 36.16v0.832h-10.144v40.32h32.832c44.48 0 64.8-17.6 64.8-72.32 0-36.16-5.12-54.72-5.12-87.36 0-17.6 10.88-36.16 43.68-37.76v-43.712c-32.8-1.088-43.68-19.712-43.68-37.312 0-32.8 5.12-52.096 5.12-87.296 0-54.72-20.16-72.384-64.8-72.384h-32.832z m-528.064 100.8c-61.44 0-120.224 51.424-118.624 132.096 0 83.2 54.752 132 126.944 132 30.24 0 63.84-10.88 89.92-28.64l-25.28-44.48c-18.56 10.88-36.16 16-54.72 16-33.6 0-59.712-16-66.432-54.72h152.384c0.8-5.92 2.56-17.6 2.56-31.04 0.96-68.224-36.16-121.184-106.752-121.184z m226.144 0.832c-57.12 0-95.904 32.832-95.904 79.04 0 41.152 36.224 62.208 66.464 73.92 26.08 10.048 51.296 18.56 51.296 35.36 0 12.64-10.016 20.928-32.736 20.928-20.96 0-42.112-8.448-64.832-26.048l-32.8 48.8c25.28 20.96 63.808 35.36 95.808 35.36 67.2 0 103.456-35.36 103.456-81.6 0.128-46.208-36.096-65.6-68.896-76.48-26.08-10.112-49.568-16-49.568-32.768 0-12.64 10.08-20.192 28.64-20.192 18.56 0 35.36 7.488 53.76 20.928l33.6-44.448c-20.96-16-49.6-32.8-88.32-32.8z m204.288 0c-57.12 0-95.808 32.832-95.808 79.04 0 41.152 36.16 62.208 66.368 73.92 26.08 10.048 51.392 18.56 51.392 35.36 0 12.64-10.08 20.928-32.8 20.928-20.96 0-42.112-8.448-64.832-26.048l-33.568 48.8c25.28 20.96 63.808 35.36 95.808 35.36 67.2 0 103.456-35.36 103.456-81.6 0-46.24-36.064-65.6-68.864-76.48-25.28-10.112-48.832-16-48.832-32.768 0-12.64 10.144-20.192 28.704-20.192 18.56 0 35.328 7.488 53.76 20.928l33.536-44.448c-20.96-16-49.6-32.8-88.32-32.8z m-429.6 55.488c30.24 0 42.048 20.992 42.048 49.632h-90.88c5.12-33.6 25.28-49.6 48.832-49.6z" p-id="22097"></path></svg>