<svg t="1697466399989" class="icon" viewBox="0 0 1024 1024" version="1.1" xmlns="http://www.w3.org/2000/svg" p-id="3179" width="30" height="30"><path d="M967.111111 281.6V910.222222c0 62.577778-51.2 113.777778-113.777778 113.777778H170.666667c-62.577778 0-113.777778-51.2-113.777778-113.777778V113.777778c0-62.577778 51.2-113.777778 113.777778-113.777778h514.844444L967.111111 281.6z" fill="#31A8FF" p-id="3180"></path><path d="M685.511111 224.711111V0L967.111111 281.6H742.4c-31.288889 0-56.888889-25.6-56.888889-56.888889" fill="#0689E9" p-id="3181"></path><path d="M428.999111 557.852444h17.436445c13.568 0 23.495111-2.616889 29.752888-7.310222 6.257778-4.977778 9.415111-13.084444 9.415112-24.291555 0-11.235556-3.413333-19.057778-9.671112-23.751111-6.257778-4.949333-16.184889-7.310222-29.496888-7.310223h-17.436445v62.663111z m19.768889-88.775111c44.942222 0 67.669333 19.057778 67.669333 57.173334 0 38.371556-22.755556 57.685333-68.152889 57.685333h-19.285333v71.537778h-30.549333V469.048889h50.346666zM621.880889 559.672889h-23.950222c-1.735111-6.826667-4.323556-11.747556-7.765334-14.364445-3.697778-2.872889-9.272889-4.152889-16.839111-4.152888-6.485333 0-11.434667 1.024-14.677333 3.356444-3.868444 2.360889-5.603556 6.030222-5.603556 11.235556 0 4.181333 2.816 8.106667 8.817778 11.235555 3.697778 1.820444 11.036444 4.437333 22.243556 7.822222 12.515556 3.669333 22.016 7.850667 28.074666 12.8 8.817778 6.798222 13.368889 16.469333 13.368889 28.444445 0 28.728889-16.810667 43.093333-50.289778 43.093333-31.061333 0-47.672889-15.928889-50.062222-47.530667h23.950222c1.308444 8.618667 3.896889 14.620444 7.566223 18.289778 3.669333 3.128889 9.500444 4.949333 17.720889 4.949334 17.237333 0 25.884444-5.745778 25.884444-16.696889 0-6.286222-3.242667-11.235556-9.728-14.876445-3.441778-2.104889-10.808889-4.465778-22.016-7.566222-13.141333-3.697778-22.471111-7.594667-27.818667-11.747556-8.647111-6.542222-12.942222-15.672889-12.942222-27.420444 0-12.544 4.067556-22.186667 12.714667-29.013333 8.448-7.281778 19.427556-10.666667 33.251555-10.666667 29.297778 0 45.511111 14.108444 48.071111 42.808889" fill="#FFFFFF" p-id="3182"></path><path d="M685.056 341.333333H338.915556a56.888889 56.888889 0 0 0-56.888889 56.888889v346.140445a56.888889 56.888889 0 0 0 56.888889 56.888889h346.140444a56.888889 56.888889 0 0 0 56.888889-56.888889V398.222222a56.888889 56.888889 0 0 0-56.888889-56.888889zM338.915556 369.777778h346.140444a28.444444 28.444444 0 0 1 28.444444 28.444444v346.140445a28.444444 28.444444 0 0 1-28.444444 28.444444H338.915556a28.444444 28.444444 0 0 1-28.444445-28.444444V398.222222a28.444444 28.444444 0 0 1 28.444445-28.444444z" fill="#FFFFFF" p-id="3183"></path></svg>