<svg t="1699013345753" class="icon" viewBox="0 0 1024 1024" version="1.1" xmlns="http://www.w3.org/2000/svg" p-id="6609" width="30" height="30"><path d="M848.896 567.296c-32.768 0-62.464 7.168-86.016 19.456-9.216-17.408-17.408-32.768-19.456-45.056-1.024-13.312-4.096-20.48-1.024-36.864 1.024-16.384 12.288-38.912 12.288-39.936 0-1.024-1.024-10.24-20.48-10.24s-35.84 3.072-36.864 9.216c-1.024 4.096-6.144 16.384-7.168 28.672-3.072 17.408-38.912 78.848-58.368 111.616-6.144-13.312-12.288-23.552-13.312-32.768-1.024-13.312-4.096-20.48-1.024-36.864 1.024-16.384 12.288-38.912 12.288-39.936 0-1.024-1.024-10.24-20.48-10.24s-35.84 3.072-36.864 9.216-4.096 16.384-7.168 28.672c-4.096 12.288-50.176 114.688-62.464 141.312-6.144 13.312-12.288 25.6-15.36 32.768v1.024c-3.072 6.144-6.144 10.24-6.144 10.24-3.072 4.096-6.144 9.216-7.168 9.216s-3.072-12.288 0-29.696c7.168-35.84 23.552-92.16 23.552-93.184s3.072-10.24-10.24-16.384c-13.312-4.096-17.408 3.072-19.456 3.072s-1.024 3.072-1.024 3.072 15.36-62.464-28.672-62.464c-26.624 0-65.536 29.696-84.992 56.32-12.288 6.144-36.864 20.48-63.488 33.792-10.24 6.144-20.48 12.288-30.72 16.384 0 0-1.024-1.024-1.024-3.072-53.248-56.32-151.552-96.256-147.456-174.08 1.024-28.672 10.24-101.376 188.416-188.416 145.408-72.704 263.168-52.224 282.624-7.168 28.672 63.488-62.464 181.248-214.016 197.632-58.368 6.144-88.064-16.384-95.232-23.552-7.168-9.216-9.216-9.216-12.288-7.168-4.096 3.072-1.024 10.24 0 15.36 4.096 12.288 23.552 32.768 55.296 43.008 28.672 9.216 95.232 13.312 177.152-17.408 92.16-35.84 163.84-134.144 142.336-217.088s-163.84-115.712-294.912-68.608c-78.848 28.672-163.84 71.68-224.256 129.024-72.704 68.608-82.944 125.952-78.848 151.552C53.248 545.792 175.104 602.112 222.208 645.12c-3.072 1.024-4.096 3.072-6.144 3.072-23.552 12.288-115.712 59.392-139.264 111.616-26.624 58.368 4.096 100.352 23.552 104.448 62.464 17.408 125.952-13.312 160.768-65.536 33.792-50.176 29.696-117.76 15.36-147.456v-1.024c6.144-3.072 13.312-7.168 19.456-10.24 12.288-7.168 23.552-13.312 33.792-19.456-6.144 16.384-10.24 35.84-12.288 63.488-3.072 32.768 10.24 75.776 28.672 92.16 7.168 7.168 16.384 7.168 22.528 7.168 20.48 0 29.696-16.384 39.936-36.864 12.288-25.6 23.552-53.248 23.552-53.248s-13.312 76.8 23.552 76.8c13.312 0 28.672-17.408 33.792-26.624 6.144-9.216 0 0 1.024-1.024 1.024-3.072 3.072-3.072 3.072-3.072 6.144-10.24 17.408-30.72 36.864-68.608 23.552-47.104 47.104-107.52 47.104-107.52s1.024 15.36 9.216 38.912c4.096 13.312 13.312 29.696 19.456 45.056-6.144 7.168-9.216 12.288-9.216 12.288-3.072 6.144-7.168 11.264-13.312 19.456-19.456 22.528-41.984 49.152-45.056 56.32-3.072 9.216-3.072 15.36 4.096 20.48 4.096 4.096 13.312 4.096 23.552 4.096 16.384-1.024 29.696-6.144 33.792-7.168 9.216-3.072 19.456-9.216 29.696-16.384 19.456-13.312 29.696-32.768 28.672-59.392 0-15.36-6.144-28.672-10.24-41.984 1.024-3.072 3.072-4.096 4.096-7.168 29.696-43.008 52.224-91.136 52.224-91.136s1.024 15.36 9.216 38.912c3.072 12.288 10.24 25.6 16.384 38.912-28.672 22.528-45.056 49.152-50.176 65.536-10.24 30.72-3.072 46.08 13.312 49.152 7.168 1.024 17.408-1.024 25.6-6.144 10.24-3.072 20.48-9.216 32.768-16.384 19.456-13.312 36.864-32.768 35.84-59.392 0-12.288-3.072-23.552-7.168-33.792 23.552-10.24 53.248-15.36 92.16-10.24 82.944 10.24 99.328 61.44 96.256 82.944-3.072 22.528-20.48 33.792-26.624 36.864s-7.168 4.096-7.168 7.168c0 4.096 3.072 3.072 9.216 3.072 7.168-1.024 43.008-17.408 45.056-58.368-7.168-52.224-56.32-107.52-140.288-107.52z m-640 215.04c-26.624 29.696-65.536 41.984-81.92 30.72-17.408-10.24-10.24-55.296 22.528-86.016 20.48-19.456 47.104-36.864 63.488-47.104 4.096-3.072 10.24-6.144 16.384-10.24 1.024 0 1.024-1.024 1.024-1.024 1.024-1.024 3.072-1.024 4.096-3.072 16.384 46.08 4.096 83.968-25.6 116.736zM409.6 646.144c-9.216 23.552-29.696 82.944-41.984 79.872-10.24-3.072-16.384-47.104-1.024-92.16 7.168-22.528 23.552-49.152 32.768-59.392 15.36-16.384 30.72-22.528 35.84-15.36 3.072 8.192-19.456 71.68-25.6 87.04z m164.864 78.848c-4.096 1.024-7.168 3.072-9.216 3.072s1.024-3.072 1.024-3.072 20.48-22.528 28.672-32.768c4.096-6.144 10.24-13.312 16.384-20.48v3.072c1.024 24.576-25.6 41.984-36.864 50.176zM701.44 696.32c-3.072-1.024-3.072-9.216 7.168-30.72 4.096-9.216 13.312-22.528 28.672-36.864 1.024 6.144 3.072 10.24 3.072 16.384 0 33.792-24.576 45.056-38.912 51.2z" fill="#FF83C4" p-id="6610"></path></svg>