<svg t="1699011690984" class="icon" viewBox="0 0 1024 1024" version="1.1" xmlns="http://www.w3.org/2000/svg" p-id="7258" width="30" height="30"><path d="M192 0h448.1536L960 320v576c0 70.6944-57.3056 128-128 128H192C121.3056 1024 64 966.6944 64 896V128C64 57.3056 121.3056 0 192 0z" fill="#426C8D" p-id="7259"></path><path d="M640 0l320 320H768c-70.6944 0-128-57.3056-128-128V0z" fill="#6B99BC" p-id="7260"></path><path d="M320.256 720.0768c25.8304 0 46.5664-5.6448 62.1824-16.9472 15.6288-11.3024 23.4368-26.9568 23.4368-46.9504 0-19.584-6.7584-35.008-20.3008-46.2592s-33.4976-20.7744-59.8528-28.5824c-15.5136-6.0544-26.112-11.072-31.7952-15.0784-5.6704-4.0192-8.512-9.344-8.512-16.0256 0-6.8736 2.7648-12.6464 8.2816-17.344 5.5168-4.6848 13.0688-7.0272 22.656-7.0272 11.776 0 20.5696 2.432 26.4064 7.2704 5.8368 4.8384 8.7424 12.6208 8.7424 23.36h51.2512l0.32-0.9472c0.512-22.08-7.1424-39.1936-22.976-51.328-15.8336-12.1344-36.7104-18.2016-62.656-18.2016-24.576 0-44.8384 5.888-60.7744 17.664-15.936 11.776-23.9104 27.1872-23.9104 46.2464 0 19.4816 6.848 34.3936 20.544 44.7616 13.696 10.368 34.6624 20.1344 62.8992 29.2992 13.952 4.9024 23.5904 9.5104 28.9024 13.824 5.312 4.3264 7.9616 10.5472 7.9616 18.688 0 7.0656-2.7008 12.8-8.1152 17.1776-5.4144 4.3776-13.6448 6.5664-24.6912 6.5664-13.44 0-23.4112-2.7904-29.9264-8.3712-6.5024-5.568-9.7664-14.976-9.7664-28.1984h-51.4048l-0.3072 0.9344c-0.512 26.048 8.1536 45.1328 26.0096 57.2672 17.8688 12.1344 39.6672 18.2016 65.3952 18.2016zM534.1696 716.8l73.7536-227.4944h-55.3088l-45.1584 166.4-1.5616 7.6544h-0.9344l-1.5616-8.2816-44.544-165.7728H403.712L477.1456 716.8h57.024z m167.8336 3.2768c22.6048 0 41.088-3.3792 55.4624-10.1504 14.3744-6.784 25.5232-14.9504 33.4464-24.5376v-90.1504h-93.1328v34.9952h40.32v40.6272c-3.2384 2.6112-7.6416 4.6848-13.2096 6.2464-5.568 1.5616-13.1968 2.3552-22.8864 2.3552-13.44 0-23.8848-4.8256-31.3344-14.464-7.4496-9.6256-11.1744-22.3616-11.1744-38.1952v-47.8208c0-15.5136 3.7504-28.1216 11.264-37.8112 7.488-9.6896 17.3824-14.528 29.6832-14.528 11.9808 0 20.928 2.7136 26.88 8.128 5.9264 5.4144 8.896 13.696 8.896 24.832h49.536l0.3072-0.9344c0.512-22.4896-6.6432-40.2304-21.4784-53.1968-14.848-12.9664-36.8-19.456-65.8688-19.456-26.9696 0-49.024 8.704-66.176 26.0992-17.1264 17.3952-25.6896 39.7952-25.6896 67.1872v47.488c0 27.6096 8.7936 50.0608 26.4064 67.3536 17.6 17.28 40.512 25.9328 68.736 25.9328z" fill="#FFFFFF" fill-opacity=".9" p-id="7261"></path></svg>