<?xml version="1.0" standalone="no"?><!DOCTYPE svg PUBLIC "-//W3C//DTD SVG 1.1//EN" "http://www.w3.org/Graphics/SVG/1.1/DTD/svg11.dtd"><svg t="1705374413909" class="icon" viewBox="0 0 1024 1024" version="1.1" xmlns="http://www.w3.org/2000/svg" p-id="7701" xmlns:xlink="http://www.w3.org/1999/xlink" width="48" height="48"><path d="M143.616 47.104l830.08 830.08c26.24 26.24 26.24 69.888 0 96.128-26.24 26.24-69.888 26.24-96.128 0L47.488 143.232c-17.536-26.24-17.536-69.888 0-96.128 26.24-26.24 69.888-26.24 96.128 0z m0 0" fill="#ffffff" p-id="7702"></path><path d="M982.528 143.232L152.32 973.312c-26.24 26.24-69.888 26.24-96.128 0-26.24-26.24-26.24-69.888 0-96.128L886.4 47.104c26.24-26.24 69.888-26.24 96.128 0 17.408 26.24 17.408 69.888 0 96.128z m0 0" fill="#ffffff" p-id="7703"></path></svg>