<?xml version="1.0" standalone="no"?><!DOCTYPE svg PUBLIC "-//W3C//DTD SVG 1.1//EN" "http://www.w3.org/Graphics/SVG/1.1/DTD/svg11.dtd"><svg t="1705375072061" class="icon" viewBox="0 0 1024 1024" version="1.1" xmlns="http://www.w3.org/2000/svg" p-id="10477" width="48" height="48" xmlns:xlink="http://www.w3.org/1999/xlink"><path d="M959.720175 0H294.216115a63.960025 63.960025 0 0 0-63.960025 63.960025v127.92005H64.279825a63.960025 63.960025 0 0 0-63.960025 63.960025v703.560275a63.960025 63.960025 0 0 0 63.960025 63.960025h703.560275a63.960025 63.960025 0 0 0 63.960025-63.960025v-166.935665h127.92005a63.960025 63.960025 0 0 0 63.960025-63.960025V63.960025a63.960025 63.960025 0 0 0-63.960025-63.960025z m-191.880075 728.504685V959.400375H64.279825V255.8401h703.560275z m189.321674 0H831.800125V255.8401a63.960025 63.960025 0 0 0-63.960025-63.960025H294.216115V63.960025H959.720175z" fill="#707070" p-id="10478"></path></svg>