<?xml version="1.0" encoding="UTF-8"?>
<svg width="70px" height="22px" viewBox="0 0 70 22" version="1.1" xmlns="http://www.w3.org/2000/svg" xmlns:xlink="http://www.w3.org/1999/xlink">
    <title>注册页面-步骤一-hula</title>
    <g id="页面-1" stroke="none" stroke-width="1" fill="none" fill-rule="evenodd">
        <g id="注册页面-步骤一" transform="translate(-154.000000, -113.000000)" fill="#6BA18B" fill-rule="nonzero">
            <g id="注册页面-步骤一-hula" transform="translate(154.000000, 113.000000)">
                <path d="M3.0048939,0 C4.66445097,-4.4408921e-16 6.00978779,1.34533682 6.00978779,3.0048939 L6.00978779,7.97367422 L6.00978779,7.97367422 C6.8268433,7.12708659 7.63897678,6.52167799 8.44618825,6.15744842 C9.25339971,5.79321886 10.2082718,5.61110408 11.3108045,5.61110408 C12.9449156,5.61110408 14.2320241,6.10822821 15.1721301,7.10247648 C16.1122361,8.09672475 16.5822892,9.62255129 16.5822892,11.6799561 L16.5822892,18.6273889 C16.5822892,20.2951011 15.2303413,21.6470489 13.5626292,21.6470489 C11.8949171,21.6470489 10.5429692,20.2951011 10.5429692,18.6273889 L10.5429692,13.0236679 L10.5429692,13.0236679 C10.5429692,12.0392637 10.3608545,11.3427977 9.9966249,10.9342699 C9.63239534,10.5257422 9.12050514,10.3214783 8.46095431,10.3214783 C7.73249518,10.3214783 7.14185265,10.5971115 6.68902671,11.1483778 C6.23620076,11.6996442 6.00978779,12.6889705 6.00978779,14.1163566 L6.00978779,18.642155 C6.00978779,20.3017121 4.66445097,21.6470489 3.0048939,21.6470489 C1.34533682,21.6470489 -1.33226763e-15,20.3017121 0,18.642155 L0,3.0048939 C0,1.34533682 1.34533682,0 3.0048939,0 Z" id="路径"></path>
                <path d="M34.6441379,21.6470489 L34.3783487,21.6470489 C32.9756764,21.6470489 31.8385858,20.5099583 31.8385858,19.107286 L31.8385858,19.107286 L31.8385858,19.107286 C31.0018422,20.1507545 30.1577156,20.8939797 29.306206,21.3369616 C28.4546963,21.7799435 27.4087668,22.0014344 26.1684175,22.0014344 C24.5146184,22.0014344 23.2176658,21.5067713 22.2775598,20.517445 C21.3374538,19.5281188 20.8674008,18.0047533 20.8674008,15.9473484 L20.8674008,8.98514956 C20.8674008,7.31743741 22.2193486,5.9654896 23.8870607,5.9654896 C25.5547729,5.9654896 26.9067207,7.31743741 26.9067207,8.98514956 L26.9067207,14.5888706 L26.9067207,14.5888706 C26.9067207,15.5732748 27.0888354,16.2722018 27.453065,16.6856516 C27.8172946,17.0991014 28.3291848,17.3058263 28.9887356,17.3058263 C29.7073507,17.3058263 30.2955322,17.0301931 30.7532802,16.4789267 C31.2110281,15.9276604 31.4399021,14.9383341 31.4399021,13.510948 L31.4399021,8.9703835 C31.4399021,7.31082642 32.7852389,5.9654896 34.444796,5.9654896 C36.1043531,5.9654896 37.4496899,7.31082642 37.4496899,8.9703835 L37.4496899,18.8414969 C37.4496899,20.3909605 36.1936015,21.6470489 34.6441379,21.6470489 Z" id="路径"></path>
                <path d="M45.0719318,0 C46.7355664,-4.4408921e-16 48.0842087,1.34864232 48.0842087,3.01227693 L48.0842087,18.634772 C48.0842087,20.2984066 46.7355664,21.6470489 45.0719318,21.6470489 C43.4082972,21.6470489 42.0596549,20.2984066 42.0596549,18.634772 L42.0596549,3.01227693 C42.0596549,1.34864232 43.4082972,0 45.0719318,0 Z" id="路径"></path>
                <path d="M58.1576172,11.0450154 L54.5225643,10.6618864 C53.617482,10.5665072 52.9611013,9.75546205 53.0564954,8.8503813 C53.0861359,8.56915783 53.1876471,8.30029372 53.3512636,8.06965363 C53.3512636,8.06965363 53.3512636,8.06965363 53.3512636,8.06965363 C53.7597913,7.49377716 54.3479728,6.99419202 55.1158081,6.5708982 C55.6670745,6.26573289 56.4250657,6.02947588 57.3897819,5.86212716 C58.354498,5.69477844 59.3979665,5.61110408 60.5201873,5.61110408 C62.321647,5.61110408 63.7687213,5.71200551 64.8614099,5.91380838 C65.9540986,6.11561124 66.8646725,6.53644405 67.5931317,7.1763068 C68.1050219,7.6192887 68.5086276,8.24684639 68.8039489,9.05897988 C69.0992701,9.87111336 69.2469308,10.6463317 69.2469308,11.3846349 L69.2469308,18.3099186 C69.2469308,19.0482217 69.29369,19.6265592 69.3872084,20.044931 C69.3872084,20.044931 69.3872084,20.044931 69.3872084,20.044931 C69.5456671,20.7538255 69.0994508,21.4569543 68.3905563,21.615413 C68.2963698,21.6364665 68.2001522,21.6470891 68.1036413,21.6470489 L65.1874129,21.6470489 C64.6086136,21.6470471 64.0955701,21.2745337 63.9163819,20.7241699 C63.9163819,20.7241699 63.9163819,20.7241699 63.9163819,20.7241699 C63.8474736,20.512523 63.7785653,20.1802866 63.709657,19.7274607 C62.9221336,20.4854519 62.1395323,21.0268742 61.3618529,21.3517276 C60.2986964,21.7848655 59.0632691,22.0014344 57.655571,22.0014344 C55.785203,22.0014344 54.3651999,21.5682966 53.3955617,20.7020208 C52.4259236,19.8357451 51.9411045,18.7676665 51.9411045,17.4977851 C51.9411045,16.306656 52.290568,15.3271738 52.989495,14.5593385 C53.688422,13.7915032 54.9779915,13.2205487 56.8582036,12.8464751 C59.1124893,12.3936492 60.5743296,12.0761788 61.2437244,11.894064 C61.9131193,11.7119493 62.6218903,11.4732312 63.3700375,11.17791 C63.3700375,10.4396068 63.2174549,9.92279458 62.9122896,9.62747332 C62.6071243,9.33215205 62.070624,9.18449141 61.3027887,9.18449141 C60.3183845,9.18449141 59.5800813,9.34199609 59.0878792,9.65700544 C58.8319341,9.82107281 58.5218467,10.2837428 58.1576172,11.0450154 L58.1576172,11.0450154 Z M63.3700375,14.204953 C62.543138,14.5002742 61.6817843,14.7611413 60.7859765,14.9875543 C59.5653152,15.3124077 58.7925579,15.6323391 58.4677045,15.9473484 C58.1330071,16.2722018 57.9656584,16.6413534 57.9656584,17.0548032 C57.9656584,17.5273172 58.1305461,17.9136959 58.4603215,18.2139392 C58.7900969,18.5141825 59.274916,18.6643041 59.9147787,18.6643041 C60.5841736,18.6643041 61.2068093,18.5018774 61.7826857,18.177024 C62.3585622,17.8521706 62.76709,17.4559479 63.008269,16.9883559 C63.249448,16.5207639 63.3700375,15.9128943 63.3700375,15.1647471 L63.3700375,14.204953 Z" id="形状"></path>
            </g>
        </g>
    </g>
</svg>